<svg width="106" height="33" viewBox="0 0 106 33" fill="none" xmlns="http://www.w3.org/2000/svg">
<path d="M100.52 0C100.52 0.275989 100.744 0.499751 101.02 0.5H102C102.093 0.5 102.185 0.503691 102.275 0.510742C102.54 0.531332 102.771 0.340878 102.807 0.0810547C102.892 0.0985434 102.976 0.119739 103.06 0.142578C102.975 0.390184 103.095 0.663976 103.34 0.765625C103.853 0.97849 104.306 1.31069 104.662 1.72754C104.835 1.92884 105.131 1.95692 105.34 1.7998C105.615 2.21627 105.814 2.6867 105.918 3.19238C105.659 3.22886 105.469 3.45986 105.489 3.72461C105.496 3.81539 105.5 3.90722 105.5 4V5.25C105.5 5.52614 105.724 5.75 106 5.75V9.75C105.724 9.75 105.5 9.97386 105.5 10.25V17.75C105.5 18.0261 105.724 18.25 106 18.25V27.25C105.724 27.25 105.5 27.4739 105.5 27.75V29C105.5 29.0928 105.496 29.1846 105.489 29.2754C105.469 29.5401 105.659 29.7701 105.918 29.8066C105.9 29.8921 105.879 29.9762 105.856 30.0596C105.609 29.9754 105.336 30.095 105.234 30.3398C105.048 30.7889 104.771 31.1911 104.425 31.5234L104.272 31.6621C104.071 31.8345 104.043 32.1308 104.199 32.3398C103.783 32.6147 103.312 32.8144 102.807 32.918C102.77 32.6586 102.54 32.4687 102.275 32.4893C102.185 32.4963 102.093 32.5 102 32.5H101.02C100.744 32.5003 100.52 32.724 100.52 33H97.5996C97.5996 32.7239 97.3758 32.5 97.0996 32.5H91.2197C90.9437 32.5001 90.7197 32.7239 90.7197 33H83.8799C83.8799 32.7239 83.656 32.5 83.3799 32.5H81.4199C81.1438 32.5 80.9199 32.7239 80.9199 33H78C78 32.7239 77.7761 32.5 77.5 32.5H71.6201C71.344 32.5 71.1201 32.7239 71.1201 33H64.2803C64.2803 32.7239 64.0563 32.5001 63.7803 32.5H61.8203C61.5442 32.5 61.3203 32.7239 61.3203 33H58.4004C58.4004 32.724 58.1764 32.5002 57.9004 32.5H52.0195C51.7436 32.5003 51.5195 32.724 51.5195 33H44.6797C44.6797 32.7239 44.4558 32.5 44.1797 32.5H42.2197C41.9437 32.5001 41.7197 32.7239 41.7197 33H38.7998C38.7998 32.7239 38.5759 32.5 38.2998 32.5H32.4199C32.1438 32.5 31.9199 32.7239 31.9199 33H25.0801C25.0801 32.7239 24.8562 32.5 24.5801 32.5H22.6201C22.344 32.5 22.1201 32.7239 22.1201 33H19.2002C19.2002 32.7239 18.9762 32.5001 18.7002 32.5H12.8203C12.5442 32.5 12.3203 32.7239 12.3203 33H5.48047C5.48047 32.724 5.2564 32.5002 4.98047 32.5H4C3.90722 32.5 3.81539 32.4963 3.72461 32.4893C3.45986 32.4687 3.22886 32.6586 3.19238 32.918C3.10696 32.9005 3.0228 32.8793 2.93945 32.8564C3.02384 32.609 2.90509 32.3359 2.66016 32.2344C2.14696 32.0215 1.69425 31.6893 1.33789 31.2725C1.16532 31.0711 0.868303 31.042 0.65918 31.1992C0.384452 30.7827 0.184587 30.3123 0.0810547 29.8066C0.340878 29.7705 0.531332 29.5404 0.510742 29.2754L0.5 29V27.75C0.5 27.4739 0.276142 27.25 0 27.25V23.25C0.241713 23.25 0.443708 23.0786 0.490234 22.8506L0.5 22.75V15.25C0.5 14.9739 0.276142 14.75 0 14.75V5.75C0.276142 5.75 0.5 5.52614 0.5 5.25V4L0.510742 3.72461C0.531335 3.45953 0.340947 3.22842 0.0810547 3.19238C0.0985629 3.10698 0.11972 3.02278 0.142578 2.93945C0.358009 3.01336 0.593164 2.93401 0.717773 2.75L0.765625 2.66016C0.951905 2.21105 1.22945 1.80889 1.5752 1.47656L1.72754 1.33789C1.92904 1.16519 1.95745 0.868326 1.7998 0.65918C2.21621 0.38439 2.6868 0.184697 3.19238 0.0810547C3.22842 0.340947 3.45953 0.531335 3.72461 0.510742L4 0.5H4.98047C5.22194 0.499778 5.42319 0.328356 5.46973 0.100586L5.48047 0H8.40039C8.40039 0.241515 8.57114 0.443491 8.79883 0.490234L8.90039 0.5H14.7803C15.0218 0.499871 15.223 0.328398 15.2695 0.100586L15.2803 0H22.1201C22.1201 0.241752 22.2915 0.443751 22.5195 0.490234L22.6201 0.5H24.5801C24.8218 0.499964 25.0238 0.328536 25.0703 0.100586L25.0801 0H28C28 0.276141 28.2239 0.499998 28.5 0.5H34.3799C34.656 0.5 34.8799 0.276142 34.8799 0H41.7197C41.7197 0.24162 41.8913 0.443606 42.1191 0.490234L42.2197 0.5H44.1797C44.4558 0.5 44.6797 0.276142 44.6797 0H47.5996C47.5996 0.241581 47.7712 0.443564 47.999 0.490234L48.0996 0.5H53.9805C54.2219 0.499779 54.4232 0.328356 54.4697 0.100586L54.4805 0H61.3203C61.3203 0.276142 61.5442 0.5 61.8203 0.5H63.7803C64.0218 0.499872 64.223 0.328399 64.2695 0.100586L64.2803 0H67.2002C67.2002 0.276142 67.4241 0.5 67.7002 0.5H73.5801C73.8218 0.49996 74.0238 0.328535 74.0703 0.100586L74.0801 0H80.9199C80.9199 0.241687 81.0914 0.44368 81.3193 0.490234L81.4199 0.5H83.3799C83.656 0.5 83.8799 0.276142 83.8799 0H86.7998C86.7998 0.276078 87.0238 0.499895 87.2998 0.5H93.1797C93.4558 0.5 93.6797 0.276142 93.6797 0H100.52Z" stroke="#6AB013" stroke-linecap="round" stroke-dasharray="2 4 6 8"/>
</svg>
